<svg width="96" height="96" viewBox="0 0 96 96" fill="none" xmlns="http://www.w3.org/2000/svg">
<path d="M77.25 4.5H18.75C10.0515 4.5 3 11.5515 3 20.25V75.75C3 84.4485 10.0515 91.5 18.75 91.5H77.25C85.9485 91.5 93 84.4485 93 75.75V20.25C93 11.5515 85.9485 4.5 77.25 4.5Z" fill="#330000"/>
<path d="M48.2958 58.5H34.8745L31.4095 68.505C31.3695 68.835 31.1608 69 30.7833 69H24.4833C24.0633 69 23.917 68.7938 24.0445 68.3813L36.202 32.2725C36.5454 31.1731 36.7149 30.0268 36.7045 28.875C36.6977 28.8242 36.7028 28.7724 36.7192 28.7238C36.7357 28.6752 36.7631 28.6311 36.7994 28.5948C36.8356 28.5585 36.8798 28.5311 36.9284 28.5147C36.977 28.4982 37.0287 28.4932 37.0795 28.5H45.8995C46.1545 28.5 46.3008 28.605 46.342 28.8075L59.947 68.445C60.0745 68.82 59.9695 69 59.632 69H52.5783C52.4478 69.0078 52.318 68.9762 52.2056 68.9094C52.0933 68.8425 52.0036 68.7434 51.9483 68.625L48.2958 58.5ZM36.3745 51.75H46.8295C46.5783 51.1988 41.8758 36.0263 41.5383 34.7475H41.4783L36.3745 51.75ZM67.4658 36C66.8745 36.0253 66.2841 35.9318 65.7295 35.725C65.175 35.5183 64.6675 35.2025 64.237 34.7963C63.8158 34.368 63.4883 33.8568 63.2752 33.2951C63.0622 32.7335 62.9683 32.1336 62.9995 31.5338C62.9716 30.9262 63.0702 30.3196 63.289 29.7521C63.5079 29.1847 63.8422 28.669 64.2708 28.2375C64.7048 27.8244 65.217 27.5022 65.7772 27.2897C66.3374 27.0772 66.9345 26.9787 67.5333 27C68.1332 26.9688 68.733 27.0626 69.2947 27.2757C69.8563 27.4887 70.3675 27.8163 70.7958 28.2375C71.2057 28.6791 71.5234 29.1982 71.7301 29.7642C71.9368 30.3303 72.0284 30.9319 71.9995 31.5338C72.0308 32.1336 71.9369 32.7335 71.7239 33.2951C71.5108 33.8568 71.1833 34.368 70.762 34.7963C70.3204 35.2062 69.8013 35.5239 69.2353 35.7306C68.6693 35.9373 68.0677 36.0289 67.4658 36ZM63.7495 68.4375V39.5025C63.7394 39.4342 63.7455 39.3644 63.7671 39.2989C63.7888 39.2333 63.8255 39.1737 63.8744 39.1248C63.9232 39.076 63.9828 39.0393 64.0484 39.0176C64.114 38.9959 64.1837 38.9899 64.252 39H70.747C70.8152 38.9907 70.8846 38.9973 70.9498 39.0192C71.015 39.0412 71.0743 39.078 71.1229 39.1266C71.1716 39.1753 71.2083 39.2345 71.2303 39.2997C71.2523 39.3649 71.2588 39.4343 71.2495 39.5025V68.4975C71.2596 68.5658 71.2536 68.6356 71.2319 68.7012C71.2103 68.7667 71.1735 68.8263 71.1247 68.8752C71.0759 68.924 71.0163 68.9607 70.9507 68.9824C70.8851 69.0041 70.8154 69.0101 70.747 69H64.312C64.2357 69.0106 64.1579 69.0033 64.0849 68.9788C64.0118 68.9543 63.9454 68.9131 63.8909 68.8586C63.8364 68.8041 63.7953 68.7378 63.7707 68.6647C63.7462 68.5916 63.739 68.5138 63.7495 68.4375Z" fill="#FF9A00"/>
</svg>
