<svg width="96" height="96" viewBox="0 0 96 96" fill="none" xmlns="http://www.w3.org/2000/svg">
<path d="M77.25 4.5H18.75C10.0515 4.5 3 11.5515 3 20.25V75.75C3 84.4485 10.0515 91.5 18.75 91.5H77.25C85.9485 91.5 93 84.4485 93 75.75V20.25C93 11.5515 85.9485 4.5 77.25 4.5Z" fill="#001E36"/>
<path d="M21.7492 68.58V27.75C21.7418 27.6931 21.7476 27.6353 21.7661 27.581C21.7846 27.5266 21.8154 27.4773 21.8559 27.4367C21.8965 27.3962 21.9458 27.3654 22.0001 27.3469C22.0545 27.3284 22.1123 27.3226 22.1692 27.33C25.2104 27.2512 28.7992 27 33.4792 27C38.9992 27 43.0492 28.1513 45.6292 30.63C46.8826 31.8027 47.8749 33.2262 48.5417 34.8079C49.2085 36.3896 49.5347 38.0939 49.4992 39.81C49.4992 44.3325 47.8992 47.6925 44.6992 49.89C41.4992 52.0875 37.4742 53.1875 32.6242 53.19L29.2492 53.25V68.52C29.2586 68.5852 29.2527 68.6517 29.2319 68.7143C29.2111 68.7768 29.176 68.8336 29.1294 68.8802C29.0828 68.9268 29.026 68.9619 28.9635 68.9827C28.9009 69.0035 28.8344 69.0094 28.7692 69H22.2292C21.9104 69 21.7492 68.8613 21.7492 68.58ZM29.2492 32.8575V47.625C29.2492 47.625 30.9592 47.5575 32.9992 47.5575C35.6817 47.5575 37.8517 46.9675 39.5092 45.7875C41.1667 44.6075 41.9967 42.675 41.9992 39.99C41.9992 37.63 41.2692 35.81 39.8092 34.53C38.3492 33.25 36.2392 32.615 33.4792 32.625C32.8004 32.625 32.1292 32.625 31.4692 32.655C30.8092 32.685 30.2692 32.685 29.8492 32.685C29.4292 32.685 29.2042 32.67 29.2492 32.8575ZM74.2492 59.25C74.2492 63.8438 71.2492 66 71.2492 66V65.9775C71.0692 66.1538 70.8742 66.3187 70.6829 66.48C68.6179 68.16 65.8267 69 62.3092 69C58.7917 69 55.9167 68.3525 53.6842 67.0575C53.5607 67.0146 53.456 66.9302 53.3876 66.8188C53.3193 66.7074 53.2915 66.5758 53.3092 66.4463V60.795C53.3036 60.7312 53.3145 60.667 53.3407 60.6086C53.367 60.5502 53.4078 60.4994 53.4592 60.4612C53.4999 60.4319 53.5501 60.4187 53.6 60.4243C53.6499 60.4298 53.6959 60.4537 53.7292 60.4912C56.109 62.3612 59.0427 63.3875 62.0692 63.4087C63.4667 63.4087 64.5367 63.1587 65.2792 62.6587C65.6215 62.4546 65.905 62.1653 66.1022 61.8189C66.2994 61.4726 66.4034 61.081 66.4042 60.6825C66.4122 60.2803 66.3363 59.8808 66.1814 59.5095C66.0264 59.1383 65.7958 58.8034 65.5042 58.5263C64.9042 57.9363 63.7242 57.2975 61.9642 56.61C58.7617 55.36 56.5317 54.0125 55.2742 52.5675C53.9433 51.1196 53.2185 49.2164 53.2492 47.25C53.2499 46.0267 53.5127 44.8178 54.0198 43.7045C54.527 42.5913 55.2667 41.5996 56.1892 40.7963C58.0667 39.0938 60.7467 38.2425 64.2292 38.2425C67.4792 38.2425 69.9792 38.6888 71.7292 39.5813C71.9279 39.7013 72.0292 39.9563 72.0292 40.3688V45.4125C72.0292 45.9 71.8492 46.02 71.4892 45.7875C69.403 44.417 66.9652 43.6786 64.4692 43.6613C63.0667 43.6613 62.0392 43.9275 61.3792 44.4525C61.0789 44.6657 60.8328 44.9464 60.6608 45.2721C60.4889 45.5978 60.3958 45.9593 60.3892 46.3275C60.3881 46.6878 60.4622 47.0443 60.6069 47.3743C60.7515 47.7043 60.9635 48.0004 61.2292 48.2437C61.7892 48.7912 62.9692 49.4287 64.7692 50.1562C67.9092 51.3837 70.1592 52.6738 71.5192 54.0263L71.5529 54.06C72.9517 55.3463 74.2492 57.1162 74.2492 59.25Z" fill="#31A8FF"/>
</svg>
