<svg width="96" height="96" viewBox="0 0 96 96" fill="none" xmlns="http://www.w3.org/2000/svg">
<g clip-path="url(#clip0_211_10)">
<path d="M17 0H79C88.4 0 96 7.79488 96 17.4359V78.5642C96 88.2052 88.4 96 79 96H17C7.6 96 0 88.2052 0 78.5642V17.4359C0 7.79488 7.6 0 17 0Z" fill="#470137"/>
<path d="M50.4503 30.1636L38.5897 49.793L51.2409 70.612C51.3201 70.7706 51.3595 70.9292 51.3201 71.0878C51.2805 71.2464 51.1223 71.1274 50.8851 71.1672H41.8317C41.1991 71.1672 40.7643 71.1274 40.4875 70.731C39.6573 69.0654 38.7875 67.4396 37.9573 65.774C37.1271 64.1482 36.2177 62.4826 35.2689 60.7774C34.3201 59.0722 33.3711 57.3672 32.4223 55.6222H32.3433C31.5131 57.3274 30.6037 59.0326 29.6945 60.7378C28.7851 62.443 27.8759 64.1482 27.0061 65.8136C26.0967 67.4792 25.1875 69.1844 24.2781 70.8102C24.1201 71.2068 23.8037 71.2464 23.3689 71.2464H14.6712C14.513 71.2464 14.3944 71.3258 14.3944 71.1274C14.3549 70.9688 14.3944 70.8102 14.4735 70.6912L26.7689 50.4672L14.7898 30.124C14.6712 29.9654 14.6316 29.8068 14.7107 29.7274C14.7898 29.6086 14.9479 29.5688 15.106 29.5688H24.0805C24.2781 29.5688 24.4759 29.6086 24.6339 29.6482C24.7921 29.7274 24.9107 29.8464 25.0293 30.005C25.7805 31.7102 26.6503 33.4154 27.5595 35.1206C28.5085 36.8258 29.4177 38.4912 30.4061 40.1568C31.3549 41.8222 32.2247 43.4878 33.0549 45.193H33.1339C33.9643 43.4482 34.8339 41.743 35.7037 40.0774C36.5735 38.412 37.4829 36.7464 38.3921 35.081C39.3015 33.4154 40.1711 31.7102 41.0409 30.0844C41.0805 29.9258 41.1595 29.7672 41.2781 29.6878C41.4363 29.6086 41.5945 29.5688 41.7921 29.6086H50.1339C50.3317 29.5688 50.5293 29.6878 50.5689 29.886C50.6085 29.9258 50.5293 30.0844 50.4503 30.1636Z" fill="#FF61F6"/>
<path fill-rule="evenodd" clip-rule="evenodd" d="M60.216 70.2155C62.865 71.4447 65.7904 72.0395 68.716 71.9999C70.7718 71.9999 72.7882 71.8017 74.8044 71.4447C77.0184 71.0481 79.1928 70.4137 81.2486 69.5413C81.5254 69.4223 81.644 69.1843 81.644 68.9067C81.6378 68.8029 81.6318 68.6961 81.6256 68.5867C81.5914 67.9871 81.5528 67.3111 81.4858 66.6067C81.4822 66.5269 81.4786 66.4475 81.475 66.3689C81.4394 65.5897 81.4068 64.8759 81.4068 64.2275V26.4757V26.3965C81.3672 26.2379 81.209 26.0793 81.0114 26.1189H72.9858C72.709 26.1189 72.5904 26.2775 72.5904 26.5551V39.0861C72.371 39.0677 72.1684 39.0579 71.9788 39.0487C71.7586 39.0379 71.556 39.0281 71.365 39.0067C71.009 38.9671 70.7324 38.9671 70.5346 38.9671C66.6208 38.9671 63.2998 39.7205 60.5324 41.2671C57.923 42.6947 55.7486 44.8361 54.2464 47.4137C52.7836 49.9517 52.0324 52.8465 52.0718 55.7809C52.0718 59.3895 52.7836 62.4033 54.2464 64.8223C55.6696 67.1619 57.7254 69.0655 60.216 70.2155ZM72.5904 46.6205V64.0689C72.116 64.2275 71.6812 64.3067 71.1672 64.2671C70.6532 64.3067 70.0998 64.3465 69.5068 64.3465C68.3998 64.3465 67.2928 64.1879 66.2254 63.8309C65.1974 63.5137 64.2882 62.9585 63.537 62.2447C62.7464 61.4517 62.1532 60.4999 61.758 59.4291C61.2836 58.1205 61.0464 56.7327 61.0858 55.3447C61.0858 53.2827 61.5208 51.5775 62.3904 50.3085C63.2602 49.0395 64.4068 48.0481 65.751 47.3741C67.1346 46.6603 68.6766 46.3429 70.2184 46.3429C70.6532 46.3429 71.0882 46.3827 71.523 46.4223C71.8788 46.4619 72.2346 46.5413 72.5904 46.6205Z" fill="#FF61F6"/>
</g>
<defs>
<clipPath id="clip0_211_10">
<rect width="96" height="96" fill="white"/>
</clipPath>
</defs>
</svg>
