<svg width="96" height="96" viewBox="0 0 96 96" fill="none" xmlns="http://www.w3.org/2000/svg">
<path d="M14.1108 85.5924L6.57031 1.01416H89.4303L81.8823 85.5797L47.9501 94.9869L14.1108 85.5924Z" fill="#1572B6"/>
<path d="M48 87.7967L75.4192 80.1947L81.87 7.9292H48V87.7967Z" fill="#33A9DC"/>
<path d="M48 38.5717H61.7265L62.6745 27.9494H48V17.5762H74.0115L73.7625 20.3594L71.2125 48.9449H48V38.5717Z" fill="white"/>
<path d="M48.0627 65.5118L48.017 65.5253L36.4647 62.4061L35.726 54.1328H25.3145L26.7672 70.4206L48.0155 76.3178L48.0627 76.3043V65.5118Z" fill="#EBEBEB"/>
<path d="M60.8444 48.5063L59.5949 62.3978L48.0254 65.5208V76.3133L69.2909 70.4198L69.4469 68.6671L71.2514 48.5063H60.8444Z" fill="white"/>
<path d="M48.0353 17.5762V27.9494H22.9793L22.7715 25.6184L22.299 20.3594L22.0508 17.5762H48.0353ZM48 38.5732V48.9464H36.5933L36.3855 46.6154L35.9123 41.3564L35.6648 38.5732H48Z" fill="#EBEBEB"/>
</svg>
