<svg width="96" height="96" viewBox="0 0 96 96" fill="none" xmlns="http://www.w3.org/2000/svg">
<path d="M32 96C40.832 96 48 88.832 48 80V64H32C23.168 64 16 71.168 16 80C16 88.832 23.168 96 32 96Z" fill="#0ACF83"/>
<path d="M16 48C16 39.168 23.168 32 32 32H48V64H32C23.168 64 16 56.832 16 48Z" fill="#A259FF"/>
<path d="M16 16C16 7.168 23.168 0 32 0H48V32H32C23.168 32 16 24.832 16 16Z" fill="#F24E1E"/>
<path d="M48 0H64C72.832 0 80 7.168 80 16C80 24.832 72.832 32 64 32H48V0Z" fill="#FF7262"/>
<path d="M80 48C80 56.832 72.832 64 64 64C55.168 64 48 56.832 48 48C48 39.168 55.168 32 64 32C72.832 32 80 39.168 80 48Z" fill="#1ABCFE"/>
</svg>
