<svg width="96" height="96" viewBox="0 0 96 96" fill="none" xmlns="http://www.w3.org/2000/svg">
<path d="M14.2772 85.4069L6.77344 1.24561H89.2254L81.7134 85.3941L47.9492 94.7541L14.2772 85.4069Z" fill="#E44D26"/>
<path d="M48 87.6L75.2835 80.0355L81.7027 8.12695H48V87.6Z" fill="#F16529"/>
<path d="M48.0004 39.3412H34.3414L33.3979 28.7707H48.0004V18.4492H22.1172L22.3647 21.2182L24.9012 49.6635H48.0004V39.3412ZM48.0004 66.1485L47.9547 66.1612L36.4594 63.0562L35.7252 54.825H25.3624L26.8084 71.0317L47.9532 76.9012L48.0004 76.8885V66.1485Z" fill="#EBEBEB"/>
<path d="M47.9648 39.3412V49.6635H60.6751L59.4773 63.0502L47.9648 66.1575V76.8967L69.1261 71.0317L69.2813 69.288L71.7068 42.1132L71.9581 39.3412H69.1771H47.9648ZM47.9648 18.4492V28.7707H72.8978L73.1048 26.4517L73.5758 21.2182L73.8226 18.4492H47.9648Z" fill="white"/>
</svg>
