<svg width="96" height="96" viewBox="0 0 96 96" fill="none" xmlns="http://www.w3.org/2000/svg">
<g clip-path="url(#clip0_211_32)">
<path d="M81.6 0H14.4C6.4471 0 0 6.4471 0 14.4V81.6C0 89.5529 6.4471 96 14.4 96H81.6C89.5529 96 96 89.5529 96 81.6V14.4C96 6.4471 89.5529 0 81.6 0Z" fill="#F7DF1E"/>
<path d="M60.75 69.375C62.625 72.5625 65.25 74.8125 69.5625 74.8125C73.3125 74.8125 75.75 72.9375 75.75 70.3125C75.75 67.3125 73.3125 66.1875 69.1875 64.3125L66.9375 63.375C60.375 60.5625 56.0625 57.1875 56.0625 49.875C56.0625 43.125 61.125 37.875 69.1875 37.875C75 37.875 79.125 39.9375 81.9375 45.1875L75 49.6875C73.5 46.875 71.8125 45.75 69.1875 45.75C66.5625 45.75 64.875 47.4375 64.875 49.6875C64.875 52.3125 66.5625 53.4375 70.5 55.125L72.75 56.0625C80.4375 59.4375 84.75 62.625 84.75 70.3125C84.75 78.375 78.375 82.875 69.75 82.875C61.3125 82.875 55.875 78.9375 53.25 73.6875L60.75 69.375ZM28.875 70.125C30.375 72.5625 31.5 74.8125 34.6875 74.8125C37.6875 74.8125 39.5625 73.6875 39.5625 69.1875V38.0625H48.5625V68.8125C48.5625 78.1875 43.125 82.3125 35.0625 82.3125C27.75 82.3125 23.625 78.5625 21.5625 74.0625L28.875 70.125Z" fill="black"/>
</g>
<defs>
<clipPath id="clip0_211_32">
<rect width="96" height="96" fill="white"/>
</clipPath>
</defs>
</svg>
